<?xml version="1.0" encoding="utf-8"?>
<!-- Generator: Adobe Illustrator 16.0.3, SVG Export Plug-In . SVG Version: 6.00 Build 0)  -->
<!DOCTYPE svg PUBLIC "-//W3C//DTD SVG 1.1//EN" "http://www.w3.org/Graphics/SVG/1.1/DTD/svg11.dtd">
<svg version="1.1" id="Layer_1" xmlns="http://www.w3.org/2000/svg" xmlns:xlink="http://www.w3.org/1999/xlink" x="0px" y="0px"
	 width="198.005px" height="98.507px" viewBox="380.997 230.469 198.005 98.507"
	 enable-background="new 380.997 230.469 198.005 98.507" xml:space="preserve">
<g>
	<path fill="#54B948" d="M438.592,290.134l15.632,2.529v11.536h-15.632V290.134z M464.988,256.291h-10.766v-3.146
		c0-4.752,0.896-8.878,6.901-8.878c1.316,0,2.567,0.205,3.863,0.491V231.3c0,0-0.261-0.126-2.067-0.403
		c-1.874-0.289-3.784-0.428-5.845-0.428c-16.288,0-18.484,11.201-18.484,22.16v17.727l26.396-4.27L464.988,256.291L464.988,256.291z
		 M543.316,231.544h-15.633v24.401l15.633-2.527V231.544z M471.842,328.976h15.631v-27.321c3.43,2.406,7.597,3.621,12.449,3.621
		c4.399,0,8.438-1.192,11.873-3.301l-39.953-6.463V328.976z M499.473,255.213c-4.864,0-9.192,1.377-12.537,3.897v-2.819h-15.094
		v8.687l40.076-6.481C508.386,256.385,504.17,255.213,499.473,255.213z M415.242,286.357c-1.672,2.545-4.48,4.361-8.403,4.361
		c-6.701,0-10.207-5.271-10.207-10.477s3.506-10.478,10.207-10.478c3.927,0,6.735,1.82,8.405,4.365l15.988-2.586
		c-3.414-9.823-12.626-16.335-24.395-16.335c-14.972,0-25.841,10.527-25.841,25.033c0,14.505,10.869,25.032,25.841,25.032
		c11.766,0,20.979-6.51,24.393-16.332L415.242,286.357z"/>
	
		<linearGradient id="SVGID_1_" gradientUnits="userSpaceOnUse" x1="353.9849" y1="255.6533" x2="494.951" y2="255.6533" gradientTransform="matrix(1 0 0 -1 84 535)">
		<stop  offset="0" style="stop-color:#B2DFAC"/>
		<stop  offset="0.2725" style="stop-color:#AFDEA9"/>
		<stop  offset="0.4913" style="stop-color:#A6DA9F"/>
		<stop  offset="0.6915" style="stop-color:#96D48E"/>
		<stop  offset="0.8795" style="stop-color:#80CB77"/>
		<stop  offset="1" style="stop-color:#6DC363"/>
	</linearGradient>
	<path fill="url(#SVGID_1_)" d="M454.224,270.307v22.356l-15.632-2.529v-19.778l26.396-4.27v4.221H454.224L454.224,270.307z
		 M527.685,304.199v-48.254l15.633-2.527v5.419c3.43-2.407,7.597-3.624,12.448-3.624c13.247,0,23.236,10.762,23.236,25.034
		c0,14.735-9.739,25.028-23.687,25.028c-4.865,0-9.193-1.377-12.538-3.897v2.821H527.685L527.685,304.199z M542.958,280.247
		c0,5.203,3.505,10.474,10.206,10.474c6.699,0,10.207-5.271,10.207-10.474c0-5.208-3.508-10.478-10.207-10.478
		C546.463,269.77,542.958,275.039,542.958,280.247z M511.795,301.975l-39.953-6.463v-30.534l40.076-6.481
		c6.954,4.158,11.242,11.974,11.242,21.751C523.16,289.775,518.701,297.734,511.795,301.975z M507.528,280.247
		c0-5.208-3.507-10.478-10.207-10.478s-10.206,5.27-10.206,10.478c0,5.203,3.506,10.474,10.206,10.474
		S507.528,285.45,507.528,280.247z"/>
</g>
</svg>
